<svg width="20" height="20" viewBox="0 0 20 20" fill="none" xmlns="http://www.w3.org/2000/svg">
<path d="M19.456 8.15425C19.579 8.81325 19.646 9.50225 19.646 10.2213C19.646 15.8453 15.882 19.8442 10.197 19.8442C8.90418 19.8446 7.62393 19.5903 6.42943 19.0957C5.23492 18.6012 4.14957 17.8761 3.23539 16.9619C2.32121 16.0477 1.59612 14.9624 1.10155 13.7679C0.606987 12.5733 0.352634 11.2931 0.353028 10.0003C0.352634 8.70741 0.606987 7.42716 1.10155 6.23265C1.59612 5.03814 2.32121 3.95279 3.23539 3.03861C4.14957 2.12443 5.23492 1.39935 6.42943 0.904778C7.62393 0.41021 8.90418 0.155856 10.197 0.15625C12.855 0.15625 15.076 1.13425 16.78 2.72225L14.005 5.49725V5.49025C12.972 4.50625 11.661 4.00125 10.197 4.00125C6.94903 4.00125 4.30903 6.74525 4.30903 9.99425C4.30903 13.2423 6.94903 15.9923 10.197 15.9923C13.144 15.9923 15.15 14.3073 15.562 11.9933H10.197V8.15425H19.457H19.456Z" fill="#0F4CA5"/>
</svg>
